<svg width="78" height="25" viewBox="0 0 78 25" fill="none" xmlns="http://www.w3.org/2000/svg">
<path d="M13.7585 12V3.27273H17.2017C17.8608 3.27273 18.4233 3.39062 18.8892 3.62642C19.358 3.85937 19.7145 4.19034 19.9588 4.61932C20.206 5.04545 20.3296 5.54687 20.3296 6.12358C20.3296 6.70312 20.2046 7.2017 19.9546 7.61932C19.7046 8.03409 19.3423 8.35227 18.8679 8.57386C18.3963 8.79545 17.8253 8.90625 17.1548 8.90625H14.8494V7.4233H16.8565C17.2088 7.4233 17.5014 7.375 17.7344 7.27841C17.9673 7.18182 18.1406 7.03693 18.2543 6.84375C18.3707 6.65057 18.429 6.41051 18.429 6.12358C18.429 5.83381 18.3707 5.58949 18.2543 5.39062C18.1406 5.19176 17.9659 5.04119 17.7301 4.93892C17.4972 4.83381 17.2031 4.78125 16.848 4.78125H15.6037V12H13.7585ZM18.4716 8.02841L20.6406 12H18.6037L16.4815 8.02841H18.4716ZM29.1134 7.63636C29.1134 8.58807 28.933 9.39773 28.5722 10.0653C28.2143 10.733 27.7256 11.2429 27.1063 11.5952C26.4898 11.9446 25.7967 12.1193 25.0268 12.1193C24.2512 12.1193 23.5552 11.9432 22.9387 11.5909C22.3222 11.2386 21.835 10.7287 21.4771 10.0611C21.1191 9.39347 20.9401 8.58523 20.9401 7.63636C20.9401 6.68466 21.1191 5.875 21.4771 5.20739C21.835 4.53977 22.3222 4.03125 22.9387 3.68182C23.5552 3.32955 24.2512 3.15341 25.0268 3.15341C25.7967 3.15341 26.4898 3.32955 27.1063 3.68182C27.7256 4.03125 28.2143 4.53977 28.5722 5.20739C28.933 5.875 29.1134 6.68466 29.1134 7.63636ZM27.2427 7.63636C27.2427 7.01989 27.1503 6.5 26.9657 6.0767C26.7839 5.65341 26.5268 5.33239 26.1944 5.11364C25.862 4.89489 25.4728 4.78551 25.0268 4.78551C24.5807 4.78551 24.1915 4.89489 23.8592 5.11364C23.5268 5.33239 23.2682 5.65341 23.0836 6.0767C22.9018 6.5 22.8109 7.01989 22.8109 7.63636C22.8109 8.25284 22.9018 8.77273 23.0836 9.19602C23.2682 9.61932 23.5268 9.94034 23.8592 10.1591C24.1915 10.3778 24.5807 10.4872 25.0268 10.4872C25.4728 10.4872 25.862 10.3778 26.1944 10.1591C26.5268 9.94034 26.7839 9.61932 26.9657 9.19602C27.1503 8.77273 27.2427 8.25284 27.2427 7.63636ZM37.6405 6.32812H35.7741C35.74 6.08665 35.6704 5.87216 35.5652 5.68466C35.4601 5.49432 35.3252 5.33239 35.1604 5.19886C34.9956 5.06534 34.8053 4.96307 34.5894 4.89205C34.3763 4.82102 34.1448 4.78551 33.8948 4.78551C33.4431 4.78551 33.0496 4.89773 32.7144 5.12216C32.3792 5.34375 32.1192 5.66761 31.9346 6.09375C31.7499 6.51705 31.6576 7.03125 31.6576 7.63636C31.6576 8.25852 31.7499 8.78125 31.9346 9.20455C32.1221 9.62784 32.3834 9.94744 32.7187 10.1634C33.0539 10.3793 33.4417 10.4872 33.882 10.4872C34.1292 10.4872 34.3579 10.4545 34.5681 10.3892C34.7812 10.3239 34.9701 10.2287 35.1349 10.1037C35.2996 9.97585 35.436 9.82102 35.5439 9.6392C35.6547 9.45739 35.7314 9.25 35.7741 9.01705L37.6405 9.02557C37.5922 9.42614 37.4715 9.8125 37.2783 10.1847C37.088 10.554 36.8309 10.8849 36.507 11.1776C36.186 11.4673 35.8025 11.6974 35.3564 11.8679C34.9133 12.0355 34.4118 12.1193 33.8522 12.1193C33.0738 12.1193 32.3777 11.9432 31.7641 11.5909C31.1533 11.2386 30.6704 10.7287 30.3152 10.0611C29.963 9.39347 29.7868 8.58523 29.7868 7.63636C29.7868 6.68466 29.9658 5.875 30.3238 5.20739C30.6817 4.53977 31.1675 4.03125 31.7812 3.68182C32.3948 3.32955 33.0851 3.15341 33.8522 3.15341C34.3579 3.15341 34.8266 3.22443 35.2584 3.36648C35.6931 3.50852 36.078 3.71591 36.4133 3.98864C36.7485 4.25852 37.0212 4.58949 37.2314 4.98153C37.4445 5.37358 37.5809 5.82244 37.6405 6.32812ZM38.4237 12V3.27273H40.2689V7.12074H40.3839L43.5245 3.27273H45.7362L42.4975 7.1804L45.7745 12H43.5672L41.1765 8.41193L40.2689 9.51989V12H38.4237ZM46.1571 12V3.27273H52.0378V4.79403H48.0023V6.87358H51.7352V8.39489H48.0023V10.4787H52.0549V12H46.1571ZM52.6324 4.79403V3.27273H59.8V4.79403H57.1281V12H55.3043V4.79403H52.6324Z" fill="white"/>
<path d="M15.723 22L13.2259 13.2727H15.2415L16.6861 19.3366H16.7585L18.3523 13.2727H20.0781L21.6676 19.3494H21.7443L23.1889 13.2727H25.2046L22.7074 22H20.9091L19.2472 16.294H19.179L17.5213 22H15.723ZM25.7721 22V13.2727H31.6528V14.794H27.6173V16.8736H31.3502V18.3949H27.6173V20.4787H31.6699V22H25.7721ZM32.6998 22V13.2727H36.1941C36.8361 13.2727 37.3717 13.3679 37.8006 13.5582C38.2296 13.7486 38.5521 14.0128 38.768 14.3509C38.9839 14.6861 39.0918 15.0724 39.0918 15.5099C39.0918 15.8509 39.0236 16.1506 38.8873 16.4091C38.7509 16.6648 38.5634 16.875 38.3248 17.0398C38.089 17.2017 37.8191 17.3168 37.5151 17.3849V17.4702C37.8475 17.4844 38.1586 17.5781 38.4484 17.7514C38.741 17.9247 38.9782 18.1676 39.16 18.4801C39.3418 18.7898 39.4327 19.1591 39.4327 19.5881C39.4327 20.0511 39.3177 20.4645 39.0876 20.8281C38.8603 21.1889 38.5236 21.4744 38.0776 21.6847C37.6316 21.8949 37.0819 22 36.4285 22H32.6998ZM34.545 20.4915H36.0492C36.5634 20.4915 36.9384 20.3935 37.1742 20.1974C37.41 19.9986 37.5279 19.7344 37.5279 19.4048C37.5279 19.1634 37.4697 18.9503 37.3532 18.7656C37.2367 18.581 37.0705 18.4361 36.8546 18.331C36.6415 18.2259 36.3873 18.1733 36.0918 18.1733H34.545V20.4915ZM34.545 16.9247H35.9128C36.1657 16.9247 36.3901 16.8807 36.5861 16.7926C36.785 16.7017 36.9413 16.5739 37.0549 16.4091C37.1714 16.2443 37.2296 16.0469 37.2296 15.8168C37.2296 15.5014 37.1174 15.2472 36.893 15.054C36.6714 14.8608 36.356 14.7642 35.9469 14.7642H34.545V16.9247ZM44.9477 15.7827C44.9137 15.4389 44.7674 15.1719 44.5088 14.9815C44.2503 14.7912 43.8995 14.696 43.4563 14.696C43.1551 14.696 42.9009 14.7386 42.6935 14.8239C42.4861 14.9062 42.327 15.0213 42.2162 15.169C42.1083 15.3168 42.0543 15.4844 42.0543 15.6719C42.0486 15.8281 42.0813 15.9645 42.1523 16.081C42.2262 16.1974 42.327 16.2983 42.4549 16.3835C42.5827 16.4659 42.7304 16.5384 42.898 16.6009C43.0656 16.6605 43.2446 16.7116 43.435 16.7543L44.2191 16.9418C44.5997 17.027 44.9492 17.1406 45.2674 17.2827C45.5855 17.4247 45.8611 17.5994 46.0941 17.8068C46.327 18.0142 46.5074 18.2585 46.6352 18.5398C46.7659 18.821 46.8327 19.1435 46.8355 19.5071C46.8327 20.0412 46.6963 20.5043 46.4264 20.8963C46.1594 21.2855 45.773 21.5881 45.2674 21.804C44.7645 22.017 44.158 22.1236 43.4477 22.1236C42.7432 22.1236 42.1296 22.0156 41.6068 21.7997C41.087 21.5838 40.6807 21.2642 40.3881 20.8409C40.0983 20.4148 39.9463 19.8878 39.9321 19.2599H41.7176C41.7375 19.5526 41.8213 19.7969 41.9691 19.9929C42.1196 20.1861 42.3199 20.3324 42.5699 20.4318C42.8227 20.5284 43.1083 20.5767 43.4264 20.5767C43.7389 20.5767 44.0102 20.5312 44.2404 20.4403C44.4733 20.3494 44.6537 20.223 44.7816 20.0611C44.9094 19.8991 44.9733 19.7131 44.9733 19.5028C44.9733 19.3068 44.9151 19.142 44.7986 19.0085C44.685 18.875 44.5174 18.7614 44.2958 18.6676C44.077 18.5739 43.8085 18.4886 43.4904 18.4119L42.5401 18.1733C41.8043 17.9943 41.2233 17.7145 40.7972 17.3338C40.371 16.9531 40.1594 16.4403 40.1622 15.7955C40.1594 15.267 40.3 14.8054 40.5841 14.4105C40.871 14.0156 41.2645 13.7074 41.7645 13.4858C42.2645 13.2642 42.8327 13.1534 43.4691 13.1534C44.1168 13.1534 44.6821 13.2642 45.1651 13.4858C45.6509 13.7074 46.0287 14.0156 46.2986 14.4105C46.5685 14.8054 46.7077 15.2628 46.7162 15.7827H44.9477ZM49.5018 13.2727V22H47.6567V13.2727H49.5018ZM50.2676 14.794V13.2727H57.4352V14.794H54.7633V22H52.9394V14.794H50.2676ZM58.1956 22V13.2727H64.0762V14.794H60.0407V16.8736H63.7737V18.3949H60.0407V20.4787H64.0933V22H58.1956ZM69.8576 15.7827C69.8235 15.4389 69.6772 15.1719 69.4187 14.9815C69.1602 14.7912 68.8093 14.696 68.3661 14.696C68.065 14.696 67.8107 14.7386 67.6033 14.8239C67.3959 14.9062 67.2369 15.0213 67.1261 15.169C67.0181 15.3168 66.9641 15.4844 66.9641 15.6719C66.9584 15.8281 66.9911 15.9645 67.0621 16.081C67.136 16.1974 67.2369 16.2983 67.3647 16.3835C67.4925 16.4659 67.6403 16.5384 67.8079 16.6009C67.9755 16.6605 68.1545 16.7116 68.3448 16.7543L69.1289 16.9418C69.5096 17.027 69.859 17.1406 70.1772 17.2827C70.4954 17.4247 70.7709 17.5994 71.0039 17.8068C71.2369 18.0142 71.4173 18.2585 71.5451 18.5398C71.6758 18.821 71.7425 19.1435 71.7454 19.5071C71.7425 20.0412 71.6062 20.5043 71.3363 20.8963C71.0692 21.2855 70.6829 21.5881 70.1772 21.804C69.6744 22.017 69.0678 22.1236 68.3576 22.1236C67.653 22.1236 67.0394 22.0156 66.5167 21.7997C65.9968 21.5838 65.5905 21.2642 65.2979 20.8409C65.0082 20.4148 64.8562 19.8878 64.842 19.2599H66.6275C66.6474 19.5526 66.7312 19.7969 66.8789 19.9929C67.0295 20.1861 67.2298 20.3324 67.4798 20.4318C67.7326 20.5284 68.0181 20.5767 68.3363 20.5767C68.6488 20.5767 68.9201 20.5312 69.1502 20.4403C69.3832 20.3494 69.5636 20.223 69.6914 20.0611C69.8192 19.8991 69.8832 19.7131 69.8832 19.5028C69.8832 19.3068 69.8249 19.142 69.7084 19.0085C69.5948 18.875 69.4272 18.7614 69.2056 18.6676C68.9869 18.5739 68.7184 18.4886 68.4002 18.4119L67.4499 18.1733C66.7141 17.9943 66.1332 17.7145 65.707 17.3338C65.2809 16.9531 65.0692 16.4403 65.0721 15.7955C65.0692 15.267 65.2099 14.8054 65.494 14.4105C65.7809 14.0156 66.1744 13.7074 66.6744 13.4858C67.1744 13.2642 67.7425 13.1534 68.3789 13.1534C69.0266 13.1534 69.592 13.2642 70.0749 13.4858C70.5607 13.7074 70.9386 14.0156 71.2084 14.4105C71.4783 14.8054 71.6175 15.2628 71.6261 15.7827H69.8576Z" fill="white"/>
<rect x="9.32843" y="9" width="3.77818" height="8.94975" transform="rotate(45 9.32843 9)" fill="#D9D9D9"/>
<rect x="6.32842" y="6" width="3.77818" height="8.94975" transform="rotate(45 6.32842 6)" fill="#D9D9D9"/>
<circle cx="75" cy="19.5" r="2.5" fill="#d62828"/>
</svg>
