<svg version="1.1" id="Icons" xmlns="http://www.w3.org/2000/svg" width="48" x="0px" y="0px"
	 viewBox="0 0 32 32" >

<line class="st1" x1="3" y1="11" x2="29" y2="11"/>
<line class="st1" x1="5" y1="8" x2="7" y2="8"/>
<line class="st1" x1="8" y1="8" x2="10" y2="8"/>
<line class="st1" x1="11" y1="8" x2="13" y2="8"/>
<path class="st1" d="M8.8,27H3V5h26v22l-5.8,0c0.3-0.1,0.6-0.1,0.9-0.1c0.1-0.6,0.2-1.3,0.2-1.9c0-0.7-0.1-1.3-0.2-1.9
	c-1,0.1-2-0.3-2.5-1.3c-0.5-0.9-0.4-2,0.2-2.8c-0.9-0.9-2.1-1.6-3.4-2c-0.4,0.9-1.3,1.6-2.4,1.6s-2-0.7-2.4-1.6
	c-1.3,0.4-2.4,1.1-3.4,2c0.6,0.8,0.7,1.9,0.2,2.8c-0.5,0.9-1.6,1.4-2.5,1.3c-0.1,0.6-0.2,1.3-0.2,1.9c0,0.7,0.1,1.3,0.2,1.9
	C8.2,26.9,8.5,26.9,8.8,27L8.8,27z"/>
<circle class="st0" cx="16" cy="25" r="3"/>
</svg>
